<?xml version="1.0" encoding="UTF-8"?>
<svg xmlns="http://www.w3.org/2000/svg" aria-hidden="true" style="position:absolute;width:0;height:0;overflow:hidden">
  <defs>
    <!-- Simple, custom, free inline icons (no external deps). Filled by currentColor. -->
    <symbol id="icon-valve" viewBox="0 0 24 24">
      <g fill="currentColor">
        <rect x="3" y="9" width="18" height="6" rx="2"/>
        <rect x="10" y="3" width="4" height="4" rx="1"/>
        <rect x="10" y="17" width="4" height="4" rx="1"/>
      </g>
    </symbol>
    <symbol id="icon-guide" viewBox="0 0 24 24">
      <g stroke="currentColor" stroke-width="2" stroke-linecap="round">
        <path d="M7 4v16M17 4v16"/>
        <path d="M4 7h16M4 17h16"/>
      </g>
    </symbol>
    <symbol id="icon-file" viewBox="0 0 24 24">
      <path fill="currentColor" d="M7 3h7l5 5v13a1 1 0 0 1-1 1H7a1 1 0 0 1-1-1V4a1 1 0 0 1 1-1zm7 1v4h4z"/>
    </symbol>
    <symbol id="icon-symbol" viewBox="0 0 24 24">
      <g fill="currentColor">
        <circle cx="12" cy="12" r="3"/>
        <path d="M12 2a1 1 0 0 1 1 1v2.1a7.9 7.9 0 0 1 3 1.25l1.49-1.49a1 1 0 0 1 1.41 0l1 1a1 1 0 0 1 0 1.41L18.9 9A7.9 7.9 0 0 1 20 12c0 1.07-.22 2.1-.61 3.03l1.41 1.41a1 1 0 0 1 0 1.41l-1 1a1 1 0 0 1-1.41 0L16.97 17.6A7.9 7.9 0 0 1 13 19.9V22a1 1 0 0 1-2 0v-2.1a7.9 7.9 0 0 1-3-1.25l-1.49 1.49a1 1 0 0 1-1.41 0l-1-1a1 1 0 0 1 0-1.41L5.1 15A7.9 7.9 0 0 1 4 12c0-1.07.22-2.1.61-3.03L3.2 7.56a1 1 0 0 1 0-1.41l1-1a1 1 0 0 1 1.41 0L7.03 6.4A7.9 7.9 0 0 1 11 4.1V3a1 1 0 0 1 1-1z"/>
      </g>
    </symbol>
    <symbol id="icon-map-pin" viewBox="0 0 24 24">
      <path fill="currentColor" d="M12 2a7 7 0 0 0-7 7c0 5.25 7 13 7 13s7-7.75 7-13a7 7 0 0 0-7-7zm0 9.5a2.5 2.5 0 1 1 0-5 2.5 2.5 0 0 1 0 5z"/>
    </symbol>
    <symbol id="icon-list" viewBox="0 0 24 24">
      <g fill="currentColor">
        <rect x="4" y="6" width="16" height="2" rx="1"/>
        <rect x="4" y="11" width="16" height="2" rx="1"/>
        <rect x="4" y="16" width="16" height="2" rx="1"/>
      </g>
    </symbol>
  </defs>
</svg>
